# Exported from Wings 3D 2.2.5
mtllib esfera.mtl
o sphere1
#114 vertices, 128 faces
v 0.38268343 0.92387953 0.0000000e+0
v 0.35355339 0.92387953 0.14644661
v 0.27059805 0.92387953 0.27059805
v 0.14644661 0.92387953 0.35355339
v 2.3432602e-17 0.92387953 0.38268343
v -0.14644661 0.92387953 0.35355339
v -0.27059805 0.92387953 0.27059805
v -0.35355339 0.92387953 0.14644661
v -0.38268343 0.92387953 4.6865204e-17
v -0.35355339 0.92387953 -0.14644661
v -0.27059805 0.92387953 -0.27059805
v -0.14644661 0.92387953 -0.35355339
v -7.0297806e-17 0.92387953 -0.38268343
v 0.14644661 0.92387953 -0.35355339
v 0.27059805 0.92387953 -0.27059805
v 0.35355339 0.92387953 -0.14644661
v 0.70710678 0.70710678 0.0000000e+0
v 0.65328148 0.70710678 0.27059805
v 0.50000000 0.70710678 0.50000000
v 0.27059805 0.70710678 0.65328148
v 4.3297803e-17 0.70710678 0.70710678
v -0.27059805 0.70710678 0.65328148
v -0.50000000 0.70710678 0.50000000
v -0.65328148 0.70710678 0.27059805
v -0.70710678 0.70710678 8.6595606e-17
v -0.65328148 0.70710678 -0.27059805
v -0.50000000 0.70710678 -0.50000000
v -0.27059805 0.70710678 -0.65328148
v -1.2989341e-16 0.70710678 -0.70710678
v 0.27059805 0.70710678 -0.65328148
v 0.50000000 0.70710678 -0.50000000
v 0.65328148 0.70710678 -0.27059805
v 0.92387953 0.38268343 0.0000000e+0
v 0.85355339 0.38268343 0.35355339
v 0.65328148 0.38268343 0.65328148
v 0.35355339 0.38268343 0.85355339
v 5.6571306e-17 0.38268343 0.92387953
v -0.35355339 0.38268343 0.85355339
v -0.65328148 0.38268343 0.65328148
v -0.85355339 0.38268343 0.35355339
v -0.92387953 0.38268343 1.1314261e-16
v -0.85355339 0.38268343 -0.35355339
v -0.65328148 0.38268343 -0.65328148
v -0.35355339 0.38268343 -0.85355339
v -1.6971392e-16 0.38268343 -0.92387953
v 0.35355339 0.38268343 -0.85355339
v 0.65328148 0.38268343 -0.65328148
v 0.85355339 0.38268343 -0.35355339
v 1.00000000 6.1232340e-17 0.0000000e+0
v 0.92387953 6.1232340e-17 0.38268343
v 0.70710678 6.1232340e-17 0.70710678
v 0.38268343 6.1232340e-17 0.92387953
v 6.1232340e-17 6.1232340e-17 1.00000000
v -0.38268343 6.1232340e-17 0.92387953
v -0.70710678 6.1232340e-17 0.70710678
v -0.92387953 6.1232340e-17 0.38268343
v -1.00000000 6.1232340e-17 1.2246468e-16
v -0.92387953 6.1232340e-17 -0.38268343
v -0.70710678 6.1232340e-17 -0.70710678
v -0.38268343 6.1232340e-17 -0.92387953
v -1.8369702e-16 6.1232340e-17 -1.00000000
v 0.38268343 6.1232340e-17 -0.92387953
v 0.70710678 6.1232340e-17 -0.70710678
v 0.92387953 6.1232340e-17 -0.38268343
v 0.92387953 -0.38268343 0.0000000e+0
v 0.85355339 -0.38268343 0.35355339
v 0.65328148 -0.38268343 0.65328148
v 0.35355339 -0.38268343 0.85355339
v 5.6571306e-17 -0.38268343 0.92387953
v -0.35355339 -0.38268343 0.85355339
v -0.65328148 -0.38268343 0.65328148
v -0.85355339 -0.38268343 0.35355339
v -0.92387953 -0.38268343 1.1314261e-16
v -0.85355339 -0.38268343 -0.35355339
v -0.65328148 -0.38268343 -0.65328148
v -0.35355339 -0.38268343 -0.85355339
v -1.6971392e-16 -0.38268343 -0.92387953
v 0.35355339 -0.38268343 -0.85355339
v 0.65328148 -0.38268343 -0.65328148
v 0.85355339 -0.38268343 -0.35355339
v 0.70710678 -0.70710678 0.0000000e+0
v 0.65328148 -0.70710678 0.27059805
v 0.50000000 -0.70710678 0.50000000
v 0.27059805 -0.70710678 0.65328148
v 4.3297803e-17 -0.70710678 0.70710678
v -0.27059805 -0.70710678 0.65328148
v -0.50000000 -0.70710678 0.50000000
v -0.65328148 -0.70710678 0.27059805
v -0.70710678 -0.70710678 8.6595606e-17
v -0.65328148 -0.70710678 -0.27059805
v -0.50000000 -0.70710678 -0.50000000
v -0.27059805 -0.70710678 -0.65328148
v -1.2989341e-16 -0.70710678 -0.70710678
v 0.27059805 -0.70710678 -0.65328148
v 0.50000000 -0.70710678 -0.50000000
v 0.65328148 -0.70710678 -0.27059805
v 0.38268343 -0.92387953 0.0000000e+0
v 0.35355339 -0.92387953 0.14644661
v 0.27059805 -0.92387953 0.27059805
v 0.14644661 -0.92387953 0.35355339
v 2.3432602e-17 -0.92387953 0.38268343
v -0.14644661 -0.92387953 0.35355339
v -0.27059805 -0.92387953 0.27059805
v -0.35355339 -0.92387953 0.14644661
v -0.38268343 -0.92387953 4.6865204e-17
v -0.35355339 -0.92387953 -0.14644661
v -0.27059805 -0.92387953 -0.27059805
v -0.14644661 -0.92387953 -0.35355339
v -7.0297806e-17 -0.92387953 -0.38268343
v 0.14644661 -0.92387953 -0.35355339
v 0.27059805 -0.92387953 -0.27059805
v 0.35355339 -0.92387953 -0.14644661
v 0.0000000e+0 1.00000000 0.0000000e+0
v 0.0000000e+0 -1.00000000 0.0000000e+0
vt 0.0000000e+0 0.12500000
vt 0.0000000e+0 0.25000000
vt 0.0000000e+0 0.37500000
vt 0.0000000e+0 0.50000000
vt 0.0000000e+0 0.62500000
vt 0.0000000e+0 0.75000000
vt 0.0000000e+0 0.87500000
vt 6.2500000e-2 0.12500000
vt 6.2500000e-2 0.25000000
vt 6.2500000e-2 0.37500000
vt 6.2500000e-2 0.50000000
vt 6.2500000e-2 0.62500000
vt 6.2500000e-2 0.75000000
vt 6.2500000e-2 0.87500000
vt 0.12500000 0.12500000
vt 0.12500000 0.37500000
vt 0.12500000 0.50000000
vt 0.12500000 0.62500000
vt 0.12500000 0.87500000
vt 0.12500000 0.25000000
vt 0.12500000 0.75000000
vt 0.18750000 0.12500000
vt 0.18750000 0.37500000
vt 0.18750000 0.62500000
vt 0.18750000 0.25000000
vt 0.18750000 0.50000000
vt 0.18750000 0.75000000
vt 0.18750000 0.87500000
vt 0.25000000 0.12500000
vt 0.25000000 0.25000000
vt 0.25000000 0.37500000
vt 0.25000000 0.50000000
vt 0.25000000 0.62500000
vt 0.25000000 0.75000000
vt 0.25000000 0.87500000
vt 0.31250000 0.12500000
vt 0.31250000 0.25000000
vt 0.31250000 0.37500000
vt 0.31250000 0.50000000
vt 0.31250000 0.62500000
vt 0.31250000 0.75000000
vt 0.31250000 0.87500000
vt 0.37500000 0.62500000
vt 0.37500000 0.75000000
vt 0.37500000 0.87500000
vt 0.37500000 0.12500000
vt 0.37500000 0.25000000
vt 0.37500000 0.37500000
vt 0.37500000 0.50000000
vt 0.43750000 0.12500000
vt 0.43750000 0.25000000
vt 0.43750000 0.37500000
vt 0.43750000 0.50000000
vt 0.43750000 0.62500000
vt 0.43750000 0.75000000
vt 0.43750000 0.87500000
vt 0.50000000 1.00000000
vt 0.50000000 0.0000000e+0
vt 0.50000000 0.12500000
vt 0.50000000 0.25000000
vt 0.50000000 0.37500000
vt 0.50000000 0.50000000
vt 0.50000000 0.62500000
vt 0.50000000 0.75000000
vt 0.50000000 0.87500000
vt 0.56250000 0.12500000
vt 0.56250000 0.25000000
vt 0.56250000 0.37500000
vt 0.56250000 0.50000000
vt 0.56250000 0.62500000
vt 0.56250000 0.75000000
vt 0.56250000 0.87500000
vt 0.62500000 0.12500000
vt 0.62500000 0.25000000
vt 0.62500000 0.37500000
vt 0.62500000 0.50000000
vt 0.62500000 0.62500000
vt 0.62500000 0.75000000
vt 0.62500000 0.87500000
vt 0.68750000 0.12500000
vt 0.68750000 0.25000000
vt 0.68750000 0.37500000
vt 0.68750000 0.50000000
vt 0.68750000 0.62500000
vt 0.68750000 0.75000000
vt 0.68750000 0.87500000
vt 0.75000000 0.12500000
vt 0.75000000 0.25000000
vt 0.75000000 0.37500000
vt 0.75000000 0.50000000
vt 0.75000000 0.62500000
vt 0.75000000 0.75000000
vt 0.75000000 0.87500000
vt 0.81250000 0.12500000
vt 0.81250000 0.25000000
vt 0.81250000 0.37500000
vt 0.81250000 0.50000000
vt 0.81250000 0.62500000
vt 0.81250000 0.75000000
vt 0.81250000 0.87500000
vt 0.87500000 0.12500000
vt 0.87500000 0.25000000
vt 0.87500000 0.37500000
vt 0.87500000 0.50000000
vt 0.87500000 0.62500000
vt 0.87500000 0.75000000
vt 0.87500000 0.87500000
vt 0.93750000 0.12500000
vt 0.93750000 0.25000000
vt 0.93750000 0.37500000
vt 0.93750000 0.50000000
vt 0.93750000 0.62500000
vt 0.93750000 0.75000000
vt 0.93750000 0.87500000
vt 1.00000000 0.12500000
vt 1.00000000 0.25000000
vt 1.00000000 0.37500000
vt 1.00000000 0.50000000
vt 1.00000000 0.62500000
vt 1.00000000 0.75000000
vt 1.00000000 0.87500000
vn 0.38219484 0.92408176 -1.2068267e-16
vn 0.35310199 0.92408176 0.14625963
vn 0.27025256 0.92408176 0.27025256
vn 0.14625963 0.92408176 0.35310199
vn 0.0000000e+0 0.92408176 0.38219484
vn -0.14625963 0.92408176 0.35310199
vn -0.27025256 0.92408176 0.27025256
vn -0.35310199 0.92408176 0.14625963
vn -0.38219484 0.92408176 3.1945414e-17
vn -0.35310199 0.92408176 -0.14625963
vn -0.27025256 0.92408176 -0.27025256
vn -0.14625963 0.92408176 -0.35310199
vn -4.6143376e-17 0.92408176 -0.38219484
vn 0.14625963 0.92408176 -0.35310199
vn 0.27025256 0.92408176 -0.27025256
vn 0.35310199 0.92408176 -0.14625963
vn 0.70658450 0.70762868 -9.2876205e-17
vn 0.65279895 0.70762868 0.27039818
vn 0.49963069 0.70762868 0.49963069
vn 0.27039818 0.70762868 0.65279895
vn 0.0000000e+0 0.70762868 0.70658450
vn -0.27039818 0.70762868 0.65279895
vn -0.49963069 0.70762868 0.49963069
vn -0.65279895 0.70762868 0.27039818
vn -0.70658450 0.70762868 1.2145350e-16
vn -0.65279895 0.70762868 -0.27039818
vn -0.49963069 0.70762868 -0.49963069
vn -0.27039818 0.70762868 -0.65279895
vn -5.7154588e-17 0.70762868 -0.70658450
vn 0.27039818 0.70762868 -0.65279895
vn 0.49963069 0.70762868 -0.49963069
vn 0.65279895 0.70762868 -0.27039818
vn 0.92368212 0.38315969 -1.2941152e-16
vn 0.85337100 0.38315969 0.35347784
vn 0.65314189 0.38315969 0.65314189
vn 0.35347784 0.38315969 0.85337100
vn 0.0000000e+0 0.38315969 0.92368212
vn -0.35347784 0.38315969 0.85337100
vn -0.65314189 0.38315969 0.65314189
vn -0.85337100 0.38315969 0.35347784
vn -0.92368212 0.38315969 1.4379058e-16
vn -0.85337100 0.38315969 -0.35347784
vn -0.65314189 0.38315969 -0.65314189
vn -0.35347784 0.38315969 -0.85337100
vn -1.0784293e-16 0.38315969 -0.92368212
vn 0.35347784 0.38315969 -0.85337100
vn 0.65314189 0.38315969 -0.65314189
vn 0.85337100 0.38315969 -0.35347784
vn 1.00000000 0.0000000e+0 -1.5858068e-16
vn 0.92387953 7.2082126e-18 0.38268343
vn 0.70710678 -7.2082126e-18 0.70710678
vn 0.38268343 0.0000000e+0 0.92387953
vn 0.0000000e+0 0.0000000e+0 1.00000000
vn -0.38268343 0.0000000e+0 0.92387953
vn -0.70710678 7.2082126e-18 0.70710678
vn -0.92387953 -7.2082126e-18 0.38268343
vn -1.00000000 0.0000000e+0 1.1533140e-16
vn -0.92387953 -7.2082126e-18 -0.38268343
vn -0.70710678 -7.2082126e-18 -0.70710678
vn -0.38268343 -7.2082126e-18 -0.92387953
vn -1.4416425e-16 7.2082126e-18 -1.00000000
vn 0.38268343 0.0000000e+0 -0.92387953
vn 0.70710678 7.2082126e-18 -0.70710678
vn 0.92387953 7.2082126e-18 -0.38268343
vn 0.92368212 -0.38315969 -1.2941152e-16
vn 0.85337100 -0.38315969 0.35347784
vn 0.65314189 -0.38315969 0.65314189
vn 0.35347784 -0.38315969 0.85337100
vn 0.0000000e+0 -0.38315969 0.92368212
vn -0.35347784 -0.38315969 0.85337100
vn -0.65314189 -0.38315969 0.65314189
vn -0.85337100 -0.38315969 0.35347784
vn -0.92368212 -0.38315969 1.4379058e-16
vn -0.85337100 -0.38315969 -0.35347784
vn -0.65314189 -0.38315969 -0.65314189
vn -0.35347784 -0.38315969 -0.85337100
vn -1.0784293e-16 -0.38315969 -0.92368212
vn 0.35347784 -0.38315969 -0.85337100
vn 0.65314189 -0.38315969 -0.65314189
vn 0.85337100 -0.38315969 -0.35347784
vn 0.70658450 -0.70762868 -6.4298911e-17
vn 0.65279895 -0.70762868 0.27039818
vn 0.49963069 -0.70762868 0.49963069
vn 0.27039818 -0.70762868 0.65279895
vn 0.0000000e+0 -0.70762868 0.70658450
vn -0.27039818 -0.70762868 0.65279895
vn -0.49963069 -0.70762868 0.49963069
vn -0.65279895 -0.70762868 0.27039818
vn -0.70658450 -0.70762868 1.5003079e-16
vn -0.65279895 -0.70762868 -0.27039818
vn -0.49963069 -0.70762868 -0.49963069
vn -0.27039818 -0.70762868 -0.65279895
vn -5.7154588e-17 -0.70762868 -0.70658450
vn 0.27039818 -0.70762868 -0.65279895
vn 0.49963069 -0.70762868 -0.49963069
vn 0.65279895 -0.70762868 -0.27039818
vn 0.38219484 -0.92408176 4.6498325e-16
vn 0.35310199 -0.92408176 0.14625963
vn 0.27025256 -0.92408176 0.27025256
vn 0.14625963 -0.92408176 0.35310199
vn 3.5494904e-18 -0.92408176 0.38219484
vn -0.14625963 -0.92408176 0.35310199
vn -0.27025256 -0.92408176 0.27025256
vn -0.35310199 -0.92408176 0.14625963
vn -0.38219484 -0.92408176 1.2423216e-16
vn -0.35310199 -0.92408176 -0.14625963
vn -0.27025256 -0.92408176 -0.27025256
vn -0.14625963 -0.92408176 -0.35310199
vn -3.5494904e-17 -0.92408176 -0.38219484
vn 0.14625963 -0.92408176 -0.35310199
vn 0.27025256 -0.92408176 -0.27025256
vn 0.35310199 -0.92408176 -0.14625963
vn -7.0801599e-18 1.00000000 -4.3365979e-17
vn -8.8501998e-18 -1.00000000 -6.2393909e-17
g sphere1
usemtl sphere1_auv
s 1
f 1/14/1 17/13/17 32/21/32 16/19/16
f 1/14/1 113/57/113 2/7/2
f 2/7/2 18/6/18 17/13/17 1/14/1
f 2/121/2 113/57/113 3/114/3
f 3/114/3 19/113/19 18/120/18 2/121/2
f 3/114/3 113/57/113 4/107/4
f 4/107/4 20/106/20 19/113/19 3/114/3
f 4/107/4 113/57/113 5/100/5
f 5/100/5 21/99/21 20/106/20 4/107/4
f 5/100/5 113/57/113 6/93/6
f 6/93/6 22/92/22 21/99/21 5/100/5
f 6/93/6 113/57/113 7/86/7
f 7/86/7 23/85/23 22/92/22 6/93/6
f 7/86/7 113/57/113 8/79/8
f 8/79/8 24/78/24 23/85/23 7/86/7
f 8/79/8 113/57/113 9/72/9
f 9/72/9 25/71/25 24/78/24 8/79/8
f 9/72/9 113/57/113 10/65/10
f 10/65/10 26/64/26 25/71/25 9/72/9
f 10/65/10 113/57/113 11/56/11
f 11/56/11 27/55/27 26/64/26 10/65/10
f 11/56/11 113/57/113 12/45/12
f 12/45/12 28/44/28 27/55/27 11/56/11
f 12/45/12 113/57/113 13/42/13
f 13/42/13 29/41/29 28/44/28 12/45/12
f 13/42/13 113/57/113 14/35/14
f 14/35/14 30/34/30 29/41/29 13/42/13
f 14/35/14 113/57/113 15/28/15
f 15/28/15 31/27/31 30/34/30 14/35/14
f 15/28/15 113/57/113 16/19/16
f 16/19/16 32/21/32 31/27/31 15/28/15
f 16/19/16 113/57/113 1/14/1
f 17/13/17 33/12/33 48/18/48 32/21/32
f 18/6/18 34/5/34 33/12/33 17/13/17
f 19/113/19 35/112/35 34/119/34 18/120/18
f 20/106/20 36/105/36 35/112/35 19/113/19
f 21/99/21 37/98/37 36/105/36 20/106/20
f 22/92/22 38/91/38 37/98/37 21/99/21
f 23/85/23 39/84/39 38/91/38 22/92/22
f 24/78/24 40/77/40 39/84/39 23/85/23
f 25/71/25 41/70/41 40/77/40 24/78/24
f 26/64/26 42/63/42 41/70/41 25/71/25
f 27/55/27 43/54/43 42/63/42 26/64/26
f 28/44/28 44/43/44 43/54/43 27/55/27
f 29/41/29 45/40/45 44/43/44 28/44/28
f 30/34/30 46/33/46 45/40/45 29/41/29
f 31/27/31 47/24/47 46/33/46 30/34/30
f 32/21/32 48/18/48 47/24/47 31/27/31
f 33/12/33 49/11/49 64/17/64 48/18/48
f 34/5/34 50/4/50 49/11/49 33/12/33
f 35/112/35 51/111/51 50/118/50 34/119/34
f 36/105/36 52/104/52 51/111/51 35/112/35
f 37/98/37 53/97/53 52/104/52 36/105/36
f 38/91/38 54/90/54 53/97/53 37/98/37
f 39/84/39 55/83/55 54/90/54 38/91/38
f 40/77/40 56/76/56 55/83/55 39/84/39
f 41/70/41 57/69/57 56/76/56 40/77/40
f 42/63/42 58/62/58 57/69/57 41/70/41
f 43/54/43 59/53/59 58/62/58 42/63/42
f 44/43/44 60/49/60 59/53/59 43/54/43
f 45/40/45 61/39/61 60/49/60 44/43/44
f 46/33/46 62/32/62 61/39/61 45/40/45
f 47/24/47 63/26/63 62/32/62 46/33/46
f 48/18/48 64/17/64 63/26/63 47/24/47
f 49/11/49 65/10/65 80/16/80 64/17/64
f 50/4/50 66/3/66 65/10/65 49/11/49
f 51/111/51 67/110/67 66/117/66 50/118/50
f 52/104/52 68/103/68 67/110/67 51/111/51
f 53/97/53 69/96/69 68/103/68 52/104/52
f 54/90/54 70/89/70 69/96/69 53/97/53
f 55/83/55 71/82/71 70/89/70 54/90/54
f 56/76/56 72/75/72 71/82/71 55/83/55
f 57/69/57 73/68/73 72/75/72 56/76/56
f 58/62/58 74/61/74 73/68/73 57/69/57
f 59/53/59 75/52/75 74/61/74 58/62/58
f 60/49/60 76/48/76 75/52/75 59/53/59
f 61/39/61 77/38/77 76/48/76 60/49/60
f 62/32/62 78/31/78 77/38/77 61/39/61
f 63/26/63 79/23/79 78/31/78 62/32/62
f 64/17/64 80/16/80 79/23/79 63/26/63
f 65/10/65 81/9/81 96/20/96 80/16/80
f 66/3/66 82/2/82 81/9/81 65/10/65
f 67/110/67 83/109/83 82/116/82 66/117/66
f 68/103/68 84/102/84 83/109/83 67/110/67
f 69/96/69 85/95/85 84/102/84 68/103/68
f 70/89/70 86/88/86 85/95/85 69/96/69
f 71/82/71 87/81/87 86/88/86 70/89/70
f 72/75/72 88/74/88 87/81/87 71/82/71
f 73/68/73 89/67/89 88/74/88 72/75/72
f 74/61/74 90/60/90 89/67/89 73/68/73
f 75/52/75 91/51/91 90/60/90 74/61/74
f 76/48/76 92/47/92 91/51/91 75/52/75
f 77/38/77 93/37/93 92/47/92 76/48/76
f 78/31/78 94/30/94 93/37/93 77/38/77
f 79/23/79 95/25/95 94/30/94 78/31/78
f 80/16/80 96/20/96 95/25/95 79/23/79
f 81/9/81 97/8/97 112/15/112 96/20/96
f 82/2/82 98/1/98 97/8/97 81/9/81
f 83/109/83 99/108/99 98/115/98 82/116/82
f 84/102/84 100/101/100 99/108/99 83/109/83
f 85/95/85 101/94/101 100/101/100 84/102/84
f 86/88/86 102/87/102 101/94/101 85/95/85
f 87/81/87 103/80/103 102/87/102 86/88/86
f 88/74/88 104/73/104 103/80/103 87/81/87
f 89/67/89 105/66/105 104/73/104 88/74/88
f 90/60/90 106/59/106 105/66/105 89/67/89
f 91/51/91 107/50/107 106/59/106 90/60/90
f 92/47/92 108/46/108 107/50/107 91/51/91
f 93/37/93 109/36/109 108/46/108 92/47/92
f 94/30/94 110/29/110 109/36/109 93/37/93
f 95/25/95 111/22/111 110/29/110 94/30/94
f 96/20/96 112/15/112 111/22/111 95/25/95
f 97/8/97 114/58/114 112/15/112
f 98/1/98 114/58/114 97/8/97
f 99/108/99 114/58/114 98/115/98
f 100/101/100 114/58/114 99/108/99
f 101/94/101 114/58/114 100/101/100
f 102/87/102 114/58/114 101/94/101
f 103/80/103 114/58/114 102/87/102
f 104/73/104 114/58/114 103/80/103
f 105/66/105 114/58/114 104/73/104
f 106/59/106 114/58/114 105/66/105
f 107/50/107 114/58/114 106/59/106
f 108/46/108 114/58/114 107/50/107
f 109/36/109 114/58/114 108/46/108
f 110/29/110 114/58/114 109/36/109
f 111/22/111 114/58/114 110/29/110
f 112/15/112 114/58/114 111/22/111
